<svg width="512" height="512" viewBox="0 0 512 512" fill="none" xmlns="http://www.w3.org/2000/svg">
  <circle cx="256" cy="256" r="240" fill="#0A0A0A" stroke="#FFFFFF" stroke-width="8"/>
  <path d="M256 120C190 120 140 180 140 260C140 340 190 400 256 400C322 400 372 340 372 260C372 180 322 120 256 120ZM210 240C202 240 195 233 195 225C195 217 202 210 210 210C218 210 225 217 225 225C225 233 218 240 210 240ZM302 240C294 240 287 233 287 225C287 217 294 210 302 210C310 210 317 217 317 225C317 233 310 240 302 240Z" fill="white"/>
  <rect x="220" y="300" width="72" height="60" rx="4" fill="#0A0A0A" stroke="white" stroke-width="2"/>
  <line x1="220" y1="320" x2="292" y2="320" stroke="white" stroke-width="2"/>
  <line x1="244" y1="300" x2="244" y2="360" stroke="white" stroke-width="2"/>
  <line x1="268" y1="300" x2="268" y2="360" stroke="white" stroke-width="2"/>
</svg>
